<?xml version="1.0" encoding="UTF-8"?>
<svg width="167px" height="21px" viewBox="0 0 167 21" version="1.1" xmlns="http://www.w3.org/2000/svg" xmlns:xlink="http://www.w3.org/1999/xlink">
    <!-- Generator: Sketch 51.3 (57544) - http://www.bohemiancoding.com/sketch -->
    <title>arrow-marchetti-designcopy4</title>
    <desc>Created with Sketch.</desc>
    <defs></defs>
    <g id="Page-1" stroke="none" stroke-width="1" fill="none" fill-rule="evenodd">
        <g id="Artboard-2-Copy" transform="translate(-62.000000, -62.000000)">
            <g id="Group-2" transform="translate(62.000000, 62.000000)">
                <g id="Group" transform="translate(0.000000, 0.238400)">
                    <g id="arrow-marchetti-designcopy4">
                        <path d="M13.5499498,19.9081848 C12.5671132,19.7672389 11.6575473,19.067543 11.2836146,18.161462 C11.1269671,17.7839283 11.0991748,17.627881 11.1017014,17.1043675 C11.1017014,16.6915973 11.1092811,16.5984723 11.157286,16.4273237 C11.2229768,16.188219 11.3543586,15.8811582 11.4705809,15.6923913 C11.6247018,15.4331515 11.4099432,15.6823238 15.0734728,11.5596553 L16.4454015,10.0168008 L16.3493918,9.90857441 C16.2963338,9.8506859 15.2452797,8.74325359 14.0123125,7.4495713 C12.7793453,6.15588901 11.6929193,4.99811887 11.5969095,4.87730807 C11.1648657,4.3286257 10.9602133,3.7572913 10.9602133,3.0978657 C10.9602133,2.32266308 11.2431894,1.65065302 11.8040884,1.09693686 C12.1931806,0.709335556 12.6378573,0.457646394 13.1785437,0.314183572 C13.5171044,0.223575474 14.1032691,0.200923449 14.4645689,0.266362631 C14.9244051,0.349420055 15.3716084,0.540703817 15.7354348,0.81001122 C15.8390242,0.88803486 16.2483289,1.27815306 16.6450007,1.67833883 C17.0416726,2.07852459 18.0876734,3.13058529 18.9694471,4.01653114 C23.0523878,8.11403069 23.2039821,8.26756108 23.3202044,8.44626038 C23.653712,8.95467249 23.7952,9.41778055 23.7952,9.99414873 C23.7952,10.6284054 23.5956008,11.2072905 23.2065087,11.6930506 C23.1180787,11.8037938 22.324735,12.6419187 21.4429613,13.5555504 C20.5611876,14.469182 19.0452443,16.0447562 18.072514,17.0540297 C17.0997837,18.0658201 16.2306429,18.9643504 16.1396863,19.0524417 C15.6722704,19.5054821 15.1240043,19.7898909 14.5125738,19.8981172 C14.2725495,19.9383875 13.8000805,19.9434213 13.5499498,19.9081848 Z" id="Shape-Copy-2" fill="#5BFCB5"></path>
                        <path d="M2.58973648,19.8820362 C1.60689991,19.7410903 0.697333921,19.0413944 0.323401239,18.1353134 C0.166753764,17.7577797 0.13896147,17.6017324 0.141488042,17.078219 C0.141488042,16.6654487 0.149067759,16.5723238 0.19707263,16.4011751 C0.262763507,16.1620704 0.39414526,15.8550096 0.51036758,15.6662428 C0.664488483,15.4070029 0.449729848,15.6561752 4.11325951,11.5335067 L5.4851882,9.99065218 L5.38917846,9.88242584 C5.33612044,9.82453733 4.28506641,8.71710502 3.05209919,7.42342273 C1.81913197,6.12974044 0.732705932,4.9719703 0.636696189,4.8511595 C0.204652346,4.30247713 0,3.73114273 0,3.07171713 C0,2.29651451 0.282976084,1.62450445 0.843875108,1.07078829 C1.23296722,0.683186984 1.67764393,0.431497823 2.21833037,0.288035 C2.55689104,0.197426902 3.14305579,0.174774878 3.50435561,0.24021406 C3.96419175,0.323271483 4.41139502,0.514555246 4.77522142,0.783862649 C4.87881088,0.861886289 5.28811557,1.25200449 5.6847874,1.65219026 C6.08145923,2.05237602 7.12746012,3.10443672 8.00923381,3.99038257 C12.0921744,8.08788212 12.2437688,8.24141251 12.3599911,8.42011181 C12.6934986,8.92852392 12.8349867,9.39163197 12.8349867,9.96800015 C12.8349867,10.6022568 12.6353875,11.1811419 12.2462953,11.666902 C12.1578653,11.7776452 11.3645217,12.6157701 10.482748,13.5294018 C9.60097428,14.4430334 8.08503097,16.0186076 7.11230068,17.0278811 C6.13957039,18.0396716 5.27042956,18.9382019 5.17947297,19.0262931 C4.71205711,19.4793336 4.16379095,19.7637423 3.55236048,19.8719687 C3.31233613,19.9122389 2.83986713,19.9172727 2.58973648,19.8820362 Z" id="Shape-Copy" fill="#000000"></path>
                        <path d="M34.8409228,14.7024129 L34.8409228,19.9108579 L32,19.9108579 L32,1.1655496 L35.3482305,1.1655496 C37.115361,1.1655496 38.6203586,1.82774137 39.8632686,3.15214477 C41.1061785,4.47654818 41.7276242,6.07260013 41.7276242,7.94034853 C41.7276242,9.81658668 41.1061785,11.4168835 39.8632686,12.7412869 C38.6203586,14.0656903 37.115361,14.727882 35.3482305,14.727882 C35.1791271,14.727882 35.0100262,14.7193924 34.8409228,14.7024129 Z M34.8409228,3.95442359 L34.8409228,11.9008043 C35.0015711,11.9262736 35.1706719,11.939008 35.3482305,11.939008 C36.3882164,11.939008 37.2738821,11.5484847 38.0052543,10.7674263 C38.7366265,9.98636786 39.1023071,9.04401803 39.1023071,7.94034853 C39.1023071,6.83667902 38.7366265,5.89645161 38.0052543,5.11963807 C37.2738821,4.34282453 36.3882164,3.95442359 35.3482305,3.95442359 L34.8409228,3.95442359 Z M46.5919797,14.7024129 L46.5919797,19.9108579 L43.7510569,19.9108579 L43.7510569,1.1655496 L46.5919797,1.1655496 L46.5919797,1.17828418 C46.7610831,1.16979442 46.930184,1.1655496 47.0992874,1.1655496 C48.8664179,1.1655496 50.3714155,1.82774137 51.6143255,3.15214477 C52.8572354,4.47654818 53.4786811,6.07260013 53.4786811,7.94034853 C53.4786811,9.81658668 52.8572354,11.4168835 51.6143255,12.7412869 C51.3014842,13.0723877 50.975965,13.3610354 50.6377582,13.6072386 L54.0240368,19.9617962 L50.9801909,19.9617962 L48.1646334,14.6387399 C47.8179715,14.6981683 47.4628597,14.727882 47.0992874,14.727882 C46.930184,14.727882 46.7610831,14.7193924 46.5919797,14.7024129 Z M46.5919797,3.97989276 L46.5919797,11.9008043 C46.7526279,11.9262736 46.9217288,11.939008 47.0992874,11.939008 C48.1392733,11.939008 49.024939,11.5484847 49.7563112,10.7674263 C50.4876834,9.98636786 50.853364,9.04401803 50.853364,7.94034853 C50.853364,6.83667902 50.4876834,5.89645161 49.7563112,5.11963807 C49.024939,4.34282453 48.1392733,3.95442359 47.0992874,3.95442359 C46.930184,3.95442359 46.7610831,3.96291323 46.5919797,3.97989276 Z M75.2363814,10.5127346 C75.2363814,11.8201585 74.9848438,13.0447887 74.4817612,14.1866622 C73.9786786,15.3285356 73.2917064,16.3239457 72.4208239,17.1729223 C71.5499414,18.0218988 70.5353363,18.6947026 69.376978,19.1913539 C68.2186197,19.6880052 66.9757284,19.9363271 65.6482668,19.9363271 C64.3123499,19.9363271 63.0652311,19.6880052 61.9068728,19.1913539 C60.7485146,18.6947026 59.7339094,18.0218988 58.8630269,17.1729223 C57.9921444,16.3239457 57.3051722,15.3285356 56.8020896,14.1866622 C56.299007,13.0447887 56.0474695,11.8201585 56.0474695,10.5127346 C56.0474695,9.21380048 56.299007,7.98492537 56.8020896,6.82607239 C57.3051722,5.66721941 57.9921444,4.66331971 58.8630269,3.81434316 C59.7339094,2.96536662 60.7485146,2.29468521 61.9068728,1.80227882 C63.0652311,1.30987243 64.3123499,1.06367292 65.6482668,1.06367292 C66.9757284,1.06367292 68.2186197,1.30987243 69.376978,1.80227882 C70.5353363,2.29468521 71.5499414,2.96536662 72.4208239,3.81434316 C73.2917064,4.66331971 73.9786786,5.66721941 74.4817612,6.82607239 C74.9848438,7.98492537 75.2363814,9.21380048 75.2363814,10.5127346 Z M59.1166808,10.5127346 C59.1166808,11.4211395 59.2857816,12.2722257 59.6239884,13.0660188 C59.9621952,13.8598118 60.4272226,14.5517173 61.0190844,15.141756 C61.6109463,15.7317947 62.3042599,16.19448 63.0990458,16.5298257 C63.8938318,16.8651715 64.7435636,17.0328418 65.6482668,17.0328418 C66.5445148,17.0328418 67.3900191,16.8651715 68.184805,16.5298257 C68.979591,16.19448 69.6707907,15.7317947 70.258425,15.141756 C70.8460593,14.5517173 71.3089729,13.8598118 71.6471797,13.0660188 C71.9853865,12.2722257 72.1544874,11.4211395 72.1544874,10.5127346 C72.1544874,9.60432968 71.9853865,8.75324347 71.6471797,7.9594504 C71.3089729,7.16565734 70.8460593,6.47375183 70.258425,5.88371314 C69.6707907,5.29367444 68.979591,4.83311158 68.184805,4.50201072 C67.3900191,4.17090987 66.5445148,4.00536193 65.6482668,4.00536193 C64.7435636,4.00536193 63.8938318,4.17090987 63.0990458,4.50201072 C62.3042599,4.83311158 61.6109463,5.29367444 61.0190844,5.88371314 C60.4272226,6.47375183 59.9621952,7.16565734 59.6239884,7.9594504 C59.2857816,8.75324347 59.1166808,9.60432968 59.1166808,10.5127346 Z M89.2645247,19.9617962 C88.4528284,19.9617962 87.7362635,19.8599206 87.1148086,19.6561662 C86.4933536,19.4524118 85.8275189,19.0873574 85.1172847,18.560992 L85.1172847,15.0589812 C85.5569535,15.5259183 85.8951552,15.8421573 86.1319,16.0077078 C86.3686447,16.1732582 86.65823,16.3494182 87.0006643,16.536193 C87.3430987,16.7229679 87.7214619,16.8800262 88.1357652,17.0073727 C88.5500685,17.1347191 88.9601381,17.1983914 89.3659863,17.1983914 C90.2030481,17.1983914 90.8900203,16.9076213 91.4269236,16.3260724 C91.9638269,15.7445235 92.2322745,15.0547404 92.2322745,14.2567024 C92.2322745,13.6029905 92.0039883,13.0723881 91.5474092,12.6648794 C91.09083,12.2573706 90.3425587,11.7904405 89.3025728,11.2640751 C88.6768902,10.941464 88.1484501,10.6485715 87.7172364,10.3853887 C87.2860227,10.122206 86.8717256,9.79535495 86.4743327,9.40482574 C86.0769397,9.01429653 85.755648,8.54948884 85.5104481,8.01038874 C85.2652482,7.47128864 85.1426501,6.83668819 85.1426501,6.10656836 C85.1764707,5.39342807 85.3497991,4.72911389 85.6626404,4.1136059 C85.9754817,3.49809791 86.3982338,2.95900589 86.9309095,2.49631367 C87.4635852,2.03362146 88.0702346,1.67493425 88.7508757,1.42024129 C89.4315169,1.16554832 90.1480818,1.03820375 90.9005919,1.03820375 C91.4670883,1.05518328 91.9828459,1.13371244 92.4478802,1.27379357 C92.9129146,1.4138747 93.4413548,1.66644143 94.0332166,2.03150134 L94.0332166,4.97319035 C93.6780995,4.73547692 93.435017,4.58903066 93.3039619,4.53384718 C93.1729068,4.47866371 92.9868958,4.38527769 92.7459235,4.25368633 C92.5049511,4.12209496 92.2259347,4.00960726 91.9088659,3.91621984 C91.591797,3.82283242 91.255709,3.77613941 90.9005919,3.77613941 C90.1058059,3.78462918 89.43363,4.03719591 88.884044,4.53384718 C88.334458,5.03049846 88.0596691,5.60567144 88.0596691,6.25938338 C88.0765794,6.87913625 88.3069793,7.37365767 88.7508757,7.74296247 C89.1947721,8.11226726 89.911337,8.52613712 90.9005919,8.98458445 C91.5770055,9.30719554 92.128697,9.59159841 92.5556831,9.83780161 C92.9826692,10.0840048 93.4033076,10.4023662 93.8176109,10.7928954 C94.2319142,11.1834247 94.5658884,11.6758237 94.8195435,12.2701072 C95.0731986,12.8643908 95.2084793,13.5690308 95.2253896,14.3840483 C95.2253896,15.1311476 95.0689713,15.8421548 94.75613,16.5170912 C94.4432888,17.1920275 94.0078541,17.7884246 93.4498128,18.3063003 C92.8917716,18.824176 92.2513021,19.2295562 91.5283851,19.5224531 C90.8054681,19.81535 90.0508555,19.9617962 89.2645247,19.9617962 Z M96.5766397,1.08914209 L108.752023,1.08914209 L108.752023,4.04356568 L104.084793,4.04356568 L104.084793,19.9363271 L101.24387,19.9363271 L101.24387,4.04356568 L96.5766397,4.04356568 L96.5766397,1.08914209 Z M113.66711,1 L118.765551,20 L115.861215,20 L115.062206,16.9946381 L110.547168,16.9946381 L109.748158,20 L106.843822,20 L111.942264,1 L113.66711,1 Z M111.35886,13.9765416 L114.250513,13.9765416 L112.817369,7.90214477 L111.35886,13.9765416 Z M123.629907,14.7024129 L123.629907,19.9108579 L120.788984,19.9108579 L120.788984,1.1655496 L123.629907,1.1655496 L123.629907,1.17828418 C123.79901,1.16979442 123.968111,1.1655496 124.137215,1.1655496 C125.904345,1.1655496 127.409343,1.82774137 128.652253,3.15214477 C129.895163,4.47654818 130.516608,6.07260013 130.516608,7.94034853 C130.516608,9.81658668 129.895163,11.4168835 128.652253,12.7412869 C128.339411,13.0723877 128.013892,13.3610354 127.675685,13.6072386 L131.061964,19.9617962 L128.018118,19.9617962 L125.202561,14.6387399 C124.855899,14.6981683 124.500787,14.727882 124.137215,14.727882 C123.968111,14.727882 123.79901,14.7193924 123.629907,14.7024129 Z M123.629907,3.97989276 L123.629907,11.9008043 C123.790555,11.9262736 123.959656,11.939008 124.137215,11.939008 C125.177201,11.939008 126.062866,11.5484847 126.794238,10.7674263 C127.525611,9.98636786 127.891291,9.04401803 127.891291,7.94034853 C127.891291,6.83667902 127.525611,5.89645161 126.794238,5.11963807 C126.062866,4.34282453 125.177201,3.95442359 124.137215,3.95442359 C123.968111,3.95442359 123.79901,3.96291323 123.629907,3.97989276 Z M131.855176,1.08914209 L144.030559,1.08914209 L144.030559,4.04356568 L139.363329,4.04356568 L139.363329,19.9363271 L136.522406,19.9363271 L136.522406,4.04356568 L131.855176,4.04356568 L131.855176,1.08914209 Z M146.053992,1.19101877 L154.703587,1.19101877 L154.703587,4.04356568 L148.907597,4.04356568 L148.907597,9.13739946 L154.703587,9.13739946 L154.703587,11.9899464 L148.907597,11.9899464 L148.907597,17.0837802 L154.703587,17.0837802 L154.703587,19.9363271 L146.053992,19.9363271 L146.053992,1.19101877 Z M159.567943,14.7024129 L159.567943,19.9108579 L156.72702,19.9108579 L156.72702,1.1655496 L159.567943,1.1655496 L159.567943,1.17828418 C159.737046,1.16979442 159.906147,1.1655496 160.075251,1.1655496 C161.842381,1.1655496 163.347379,1.82774137 164.590289,3.15214477 C165.833199,4.47654818 166.454644,6.07260013 166.454644,7.94034853 C166.454644,9.81658668 165.833199,11.4168835 164.590289,12.7412869 C164.277447,13.0723877 163.951928,13.3610354 163.613721,13.6072386 L167,19.9617962 L163.956154,19.9617962 L161.140597,14.6387399 C160.793935,14.6981683 160.438823,14.727882 160.075251,14.727882 C159.906147,14.727882 159.737046,14.7193924 159.567943,14.7024129 Z M159.567943,3.97989276 L159.567943,11.9008043 C159.728591,11.9262736 159.897692,11.939008 160.075251,11.939008 C161.115236,11.939008 162.000902,11.5484847 162.732274,10.7674263 C163.463647,9.98636786 163.829327,9.04401803 163.829327,7.94034853 C163.829327,6.83667902 163.463647,5.89645161 162.732274,5.11963807 C162.000902,4.34282453 161.115236,3.95442359 160.075251,3.95442359 C159.906147,3.95442359 159.737046,3.96291323 159.567943,3.97989276 Z" id="PRO-STARTER" fill="#000000"></path>
                    </g>
                </g>
            </g>
        </g>
    </g>
</svg>