<?xml version="1.0" encoding="UTF-8"?>
<svg width="357px" height="313px" viewBox="0 0 357 313" version="1.1" xmlns="http://www.w3.org/2000/svg" xmlns:xlink="http://www.w3.org/1999/xlink">
    <!-- Generator: Sketch 51.3 (57544) - http://www.bohemiancoding.com/sketch -->
    <title>blob-shape(3)</title>
    <desc>Created with Sketch.</desc>
    <defs></defs>
    <g id="Page-1" stroke="none" stroke-width="1" fill="none" fill-rule="evenodd">
        <g id="Artboard-Copy" transform="translate(-795.000000, -1320.000000)" fill="#63FBB7" fill-rule="nonzero">
            <g id="lavoro-copy" transform="translate(582.000000, 1319.000000)">
                <g id="blob-shape(3)" transform="translate(213.000000, 0.337132)">
                    <path d="M232.925368,77.7684267 C269.692597,81.4767094 326.263634,81.0033116 346.777538,102.069513 C367.291442,123.214615 351.748215,165.978216 331.786608,201.009652 C311.746101,236.041089 287.287215,263.340362 258.25215,281.960675 C229.217086,300.502089 195.684742,310.364543 160.258807,312.968231 C124.911772,315.493019 87.6711452,310.759041 57.5314856,292.533226 C27.391826,274.307411 4.35313339,242.589759 0.565951037,209.688612 C-3.14233168,176.787465 12.3219963,142.623925 19.3440635,101.043818 C26.3661308,59.463712 24.9459374,10.3881406 47.353433,2.02477962 C69.682029,-6.33858142 115.917214,25.9313682 147.555966,46.0507745 C179.194719,66.1701807 196.15814,74.060144 232.925368,77.7684267 Z" id="Shape"></path>
                </g>
            </g>
        </g>
    </g>
</svg>