<?xml version="1.0" encoding="UTF-8"?>
<svg width="351px" height="346px" viewBox="0 0 351 346" version="1.1" xmlns="http://www.w3.org/2000/svg" xmlns:xlink="http://www.w3.org/1999/xlink">
    <!-- Generator: Sketch 51.3 (57544) - http://www.bohemiancoding.com/sketch -->
    <title>Shape</title>
    <desc>Created with Sketch.</desc>
    <defs></defs>
    <g id="Page-1" stroke="none" stroke-width="1" fill="none" fill-rule="evenodd">
        <g id="Artboard-Copy" transform="translate(-793.000000, -753.000000)" fill="#61F9B5" fill-rule="nonzero">
            <g id="blob-shape(2)" transform="translate(793.000000, 753.000000)">
                <path d="M238.985629,85.9895695 C273.896263,113.060524 317.636753,126.146182 337.83096,154.771059 C358.025167,183.477721 354.673092,227.641816 329.982199,252.995278 C305.291306,278.34874 259.261595,284.809784 226.067877,294.05153 C192.955918,303.293276 172.598195,315.315724 143.001826,328.07424 C113.487216,340.750971 74.7339594,354.0002 56.0113948,340.014903 C37.370588,326.111392 38.8422307,284.809784 30.5846803,249.151366 C22.4088879,213.492948 4.50390245,183.477721 0.743037932,146.510737 C-3.01782659,109.543754 7.3654298,65.7067997 34.9178503,36.2640695 C62.5520287,6.82133928 107.355371,-8.30895265 142.756552,4.69491987 C178.157734,17.6987924 204.156754,58.8368294 238.985629,85.9895695 Z" id="Shape"></path>
            </g>
        </g>
    </g>
</svg>